<svg id="Layer_27" data-name="Layer 27" xmlns="http://www.w3.org/2000/svg" viewBox="0 0 24 24"><defs><style>.cls-1{fill:none;stroke:#565656;stroke-linecap:round;stroke-miterlimit:10;stroke-width:0.75px;}</style></defs><title>processor</title><polygon class="cls-1" points="5.21 6.17 6.17 5.21 17.82 5.21 18.79 6.17 18.79 17.83 17.83 18.79 6.17 18.79 5.21 17.83 5.21 6.17"/><line class="cls-1" x1="8.4" y1="5.21" x2="8.4" y2="2.4"/><line class="cls-1" x1="10.8" y1="5.21" x2="10.8" y2="2.4"/><line class="cls-1" x1="13.2" y1="5.21" x2="13.2" y2="2.4"/><line class="cls-1" x1="15.6" y1="5.21" x2="15.6" y2="2.4"/><line class="cls-1" x1="21.6" y1="15.59" x2="18.79" y2="15.59"/><line class="cls-1" x1="21.6" y1="13.19" x2="18.79" y2="13.19"/><line class="cls-1" x1="21.6" y1="10.79" x2="18.79" y2="10.79"/><line class="cls-1" x1="21.6" y1="8.39" x2="18.79" y2="8.39"/><line class="cls-1" x1="5.21" y1="15.59" x2="2.39" y2="15.59"/><line class="cls-1" x1="5.21" y1="13.19" x2="2.39" y2="13.19"/><line class="cls-1" x1="5.21" y1="10.79" x2="2.39" y2="10.79"/><line class="cls-1" x1="5.21" y1="8.39" x2="2.39" y2="8.39"/><line class="cls-1" x1="8.4" y1="21.61" x2="8.4" y2="18.79"/><line class="cls-1" x1="10.8" y1="21.61" x2="10.8" y2="18.79"/><line class="cls-1" x1="13.2" y1="21.61" x2="13.2" y2="18.79"/><line class="cls-1" x1="15.6" y1="21.61" x2="15.6" y2="18.79"/></svg>